<svg xmlns="http://www.w3.org/2000/svg" version="1.1"
    xmlns:xlink="http://www.w3.org/1999/xlink"
    xmlns:svgjs="http://svgjs.com/svgjs" width="1440" height="560" preserveAspectRatio="none" viewBox="0 0 1440 560">
    <g mask="url(&quot;#SvgjsMask3042&quot;)" fill="none">
        <rect width="1440" height="560" x="0" y="0" fill="url(#SvgjsLinearGradient3043)"></rect>
        <path d="M0 0L448.69 0L0 46.81z" fill="rgba(255, 255, 255, .1)"></path>
        <path d="M0 46.81L448.69 0L670.94 0L0 201.81z" fill="rgba(255, 255, 255, .075)"></path>
        <path d="M0 201.81L670.94 0L990.74 0L0 241.78z" fill="rgba(255, 255, 255, .05)"></path>
        <path d="M0 241.78L990.74 0L1088.49 0L0 399.07z" fill="rgba(255, 255, 255, .025)"></path>
        <path d="M1440 560L856.81 560L1440 357.9z" fill="rgba(0, 0, 0, .1)"></path>
        <path d="M1440 357.9L856.81 560L418.0199999999999 560L1440 303.59z" fill="rgba(0, 0, 0, .075)"></path>
        <path d="M1440 303.59000000000003L418.02 560L286.57 560L1440 223.76000000000005z" fill="rgba(0, 0, 0, .05)"></path>
        <path d="M1440 223.76000000000005L286.56999999999994 560L160.23999999999995 560L1440 213.03000000000006z" fill="rgba(0, 0, 0, .025)"></path>
    </g>
    <defs>
        <mask id="SvgjsMask3042">
            <rect width="1440" height="560" fill="#ffffff"></rect>
        </mask>
        <linearGradient x1="15.28%" y1="-39.29%" x2="84.72%" y2="139.29%" gradientUnits="userSpaceOnUse" id="SvgjsLinearGradient3043">
            <stop stop-color="rgba(14, 42, 71, 1)" offset="0"></stop>
            <stop stop-color="rgba(161, 6, 55, 1)" offset="0.67"></stop>
            <stop stop-color="rgba(128, 19, 54, 1)" offset="1"></stop>
        </linearGradient>
    </defs>
</svg>