<svg xmlns="http://www.w3.org/2000/svg" x="0px" y="0px"
width="50" height="50"
viewBox="0 0 172 172"
style=" fill:#000000;"><g fill="none" fill-rule="nonzero" stroke="none" stroke-width="1" stroke-linecap="butt" stroke-linejoin="miter" stroke-miterlimit="10" stroke-dasharray="" stroke-dashoffset="0" font-family="none" font-weight="none" font-size="none" text-anchor="none" style="mix-blend-mode: normal"><path d="M0,172v-172h172v172z" fill="none"></path><g fill="#ffffff"><path d="M79.12,10.32c-1.89469,0 -3.44,1.54531 -3.44,3.44v26.66l-13.76,35.26v72.24c1.42438,4.00438 5.83188,6.88 10.32,6.88h65.36c7.59219,0 13.76,-6.16781 13.76,-13.76c0,-2.83531 -0.90031,-5.44219 -2.365,-7.6325c5.36156,-1.88125 9.245,-7.01437 9.245,-13.0075c0,-3.37281 -1.20937,-6.42312 -3.225,-8.815c3.99094,-2.40531 6.665,-6.82625 6.665,-11.825c0,-3.37281 -1.20937,-6.42312 -3.225,-8.815c3.99094,-2.40531 6.665,-6.82625 6.665,-11.825c0,-7.59219 -6.16781,-13.76 -13.76,-13.76h-50.31c2.09625,-6.63812 5.59,-18.51687 5.59,-24.08c0,-12.95375 -9.48687,-30.96 -18.8125,-30.96zM10.32,65.36c-0.98094,0 -1.92156,0.44344 -2.58,1.1825c-0.65844,0.73906 -0.98094,1.70656 -0.86,2.6875l10.32,82.56c0.215,1.72 1.70656,3.01 3.44,3.01h30.96c1.89469,0 3.44,-1.53187 3.44,-3.44v-82.56c0,-1.89469 -1.54531,-3.44 -3.44,-3.44zM39.56,130.72c2.84875,0 5.16,2.31125 5.16,5.16c0,2.84875 -2.31125,5.16 -5.16,5.16c-2.84875,0 -5.16,-2.31125 -5.16,-5.16c0,-2.84875 2.31125,-5.16 5.16,-5.16z"></path></g></g></svg>